ply
format ascii 1.0
element vertex 31
property float x
property float y
property float z
end_header
-1.782 4.894 0.0
-1.781 4.429 0.0
-1.765 -3.798 0.0
-1.762 -4.936 0.0
-1.761 -5.025 0.0
-1.758 -5.424 0.0
-0.762 -6.009 0.0
-0.720 -6.011 0.0
-0.682 -6.012 0.0
6.238 -6.138 0.0
6.688 -6.138 0.0
6.814 -6.138 0.0
8.765 -6.131 0.0
9.004 -6.128 0.0
9.008 -6.035 0.0
9.000 -5.550 0.0
8.972 -3.805 0.0
8.933 -1.436 0.0
8.924 -0.101 0.0
8.921 -0.056 0.0
8.209 0.708 0.0
8.177 0.732 0.0
0.012 5.456 0.0
-0.268 5.471 0.0
-0.302 5.472 0.0
-1.137 5.495 0.0
-1.442 5.503 0.0
-1.497 5.502 0.0
-1.532 5.497 0.0
-1.558 5.492 0.0
-1.771 4.968 0.0
